<?xml version="1.0" encoding="UTF-8"?>
<svg width="10px" height="10px" viewBox="0 0 10 10" version="1.1" xmlns="http://www.w3.org/2000/svg" xmlns:xlink="http://www.w3.org/1999/xlink">
    <!-- Generator: sketchtool 59 (101010) - https://sketch.com -->
    <title>F5EB6CBF-2F14-4AE8-8057-397B5179002F</title>
    <desc>Created with sketchtool.</desc>
    <g id="Page-1" stroke="none" stroke-width="1" fill="none" fill-rule="evenodd">
        <g id="retroflix_detalle_sinopsis" transform="translate(-137.000000, -366.000000)" fill="#FFFFFF" fill-rule="nonzero">
            <g id="episodes" transform="translate(137.000000, 362.000000)">
                <path d="M4.5,11.2120297 C4.77607493,11.2120297 5,11.6180317 5,12.1183048 C5,12.6183851 4.77607493,13.0241943 4.5,13.0241943 L4.5,13.0241943 L0.500106428,13.0241943 C0.223925074,13.0241943 0,12.6183851 0,12.1183048 C0,11.6178389 0.223925074,11.2120297 0.500106428,11.2120297 L0.500106428,11.2120297 Z M8.15127076,7.60601484 C8.65135109,7.60601484 9.05696752,8.01182405 9.05696752,8.51209716 C9.05696752,9.01237027 8.65135109,9.4179867 8.15127076,9.4179867 L8.15127076,9.4179867 L0.905889535,9.4179867 C0.405616425,9.4179867 0,9.01237027 0,8.51209716 C0,8.01163127 0.405616425,7.60601484 0.905889535,7.60601484 L0.905889535,7.60601484 Z M8.15127076,4 C8.65135109,4 9.05696752,4.40542364 9.05696752,4.90588954 C9.05696752,5.40635543 8.65135109,5.81197185 8.15127076,5.81197185 L8.15127076,5.81197185 L0.905889535,5.81197185 C0.405616425,5.81197185 0,5.40616264 0,4.90588954 C0,4.40561643 0.405616425,4 0.905889535,4 L0.905889535,4 Z" id="Combined-Shape"></path>
            </g>
        </g>
    </g>
</svg>