<?xml version="1.0" encoding="UTF-8"?>
<svg width="17px" height="14px" viewBox="0 0 17 14" version="1.1" xmlns="http://www.w3.org/2000/svg" xmlns:xlink="http://www.w3.org/1999/xlink">
    <!-- Generator: Sketch 59 (86127) - https://sketch.com -->
    <title>Shape</title>
    <desc>Created with Sketch.</desc>
    <g id="Symbols" stroke="none" stroke-width="1" fill="none" fill-rule="evenodd">
        <g id="icon/bar/back" transform="translate(-19.000000, -21.000000)" fill="#FFFFFF" fill-rule="nonzero">
            <path d="M33.8653061,25.835102 C34.2832653,26.2530612 34.2832653,26.9257143 33.8653061,27.3436735 C33.6563265,27.5526531 33.3853061,27.6571429 33.1110204,27.6571429 C32.8367347,27.6571429 32.5657143,27.5526531 32.3567347,27.3436735 L28.6571429,23.6408163 L28.6571429,34.9322449 C28.6571429,35.52 28.1804082,36 27.5893878,36 C26.9983673,36 26.5216327,35.5232653 26.5216327,34.9322449 L26.5216327,23.6408163 L22.8220408,27.3436735 C22.4040816,27.7616327 21.7314286,27.7616327 21.3134694,27.3436735 C20.8955102,26.9257143 20.8955102,26.2530612 21.3134694,25.835102 L26.835102,20.3134694 C27.0342857,20.1110204 27.3053061,20 27.5893878,20 C27.8734694,20 28.1444898,20.1110204 28.3436735,20.3134694 L33.8653061,25.835102 Z" id="Shape" transform="translate(27.589388, 28.000000) scale(-1, 1) rotate(90.000000) translate(-27.589388, -28.000000) "></path>
        </g>
    </g>
</svg>