<?xml version="1.0" encoding="UTF-8"?>
<svg width="20px" height="18px" viewBox="0 0 20 18" version="1.1" xmlns="http://www.w3.org/2000/svg" xmlns:xlink="http://www.w3.org/1999/xlink">
    <!-- Generator: Sketch 59 (86127) - https://sketch.com -->
    <title>Path</title>
    <desc>Created with Sketch.</desc>
    <g id="Symbols" stroke="none" stroke-width="1" fill="none" fill-rule="evenodd">
        <g id="heart" transform="translate(-11.000000, -13.000000)" fill="#FFFFFF" fill-rule="nonzero">
            <g id="heart-(1)">
                <g transform="translate(11.000000, 13.000000)">
                    <path d="M18.4133911,1.75123261 C17.3780823,0.621954578 15.957489,0 14.4129944,0 C13.2585144,0 12.2012329,0.367065229 11.2704468,1.09091417 C10.8007813,1.45629138 10.3752136,1.90330688 10,2.42505512 C9.62493898,1.90346033 9.19921875,1.45629138 8.72940063,1.09091417 C7.79876711,0.367065229 6.74148559,0 5.58700563,0 C4.04251098,0 2.62176516,0.621954578 1.58645629,1.75123261 C0.56350707,2.86731346 0,4.39204595 0,6.04476023 C0,7.74581293 0.630340586,9.30292451 1.98364258,10.9452038 C3.19427492,12.414232 4.93423461,13.9055112 6.94915773,15.6323444 C7.63717652,16.2220734 8.4170532,16.8905249 9.22683715,17.6025578 C9.44076539,17.791001 9.71527102,17.8947368 10,17.8947368 C10.2845764,17.8947368 10.5592346,17.791001 10.7728577,17.6028648 C11.5826416,16.8906784 12.3629761,16.2219199 13.0513,15.631884 C15.065918,13.9053578 16.8058777,12.414232 18.01651,10.9450503 C19.369812,9.30292451 20,7.74581293 20,6.04460679 C20,4.39204595 19.4364929,2.86731346 18.4133911,1.75123261 Z" id="Path"></path>
                </g>
            </g>
        </g>
    </g>
</svg>