<?xml version="1.0" encoding="UTF-8"?>
<svg width="10px" height="7px" viewBox="0 0 10 7" version="1.1" xmlns="http://www.w3.org/2000/svg" xmlns:xlink="http://www.w3.org/1999/xlink">
    <!-- Generator: Sketch 59 (86127) - https://sketch.com -->
    <title>Path</title>
    <desc>Created with Sketch.</desc>
    <g id="Symbols" stroke="none" stroke-width="1" fill="none" fill-rule="evenodd">
        <g id="check-yes" transform="translate(-7.000000, -9.000000)" fill="#FFFFFF" fill-rule="nonzero">
            <path d="M16.1647341,9.96629793 L15.3458242,9.16496058 C15.2335373,9.05500062 15.096975,9 14.9364536,9 C14.7757846,9 14.6392223,9.05500062 14.5269354,9.16496058 L10.5767728,13.0361993 L8.80644003,11.2979527 C8.69402657,11.1879515 8.55754861,11.1330128 8.39702725,11.1330128 C8.23640044,11.1330128 8.09992248,11.1879515 7.98750902,11.2979527 L7.1685991,12.0993107 C7.05618564,12.2092913 7,12.3428819 7,12.5000413 C7,12.6570768 7.05618564,12.7907913 7.1685991,12.9007512 L9.34834462,15.0336814 L10.1673178,15.8350188 C10.279668,15.9450613 10.4161881,16 10.5767728,16 C10.7372941,16 10.8738143,15.9449168 10.9862277,15.8350188 L11.8051798,15.0336814 L16.1647341,10.7676972 C16.2770421,10.657696 16.3333333,10.524126 16.3333333,10.3669666 C16.3333333,10.2098898 16.2770421,10.0762992 16.1647341,9.96629793 Z" id="Path"></path>
        </g>
    </g>
</svg>