<?xml version="1.0" encoding="UTF-8"?>
<svg width="14px" height="13px" viewBox="0 0 14 13" version="1.1" xmlns="http://www.w3.org/2000/svg" xmlns:xlink="http://www.w3.org/1999/xlink">
    <!-- Generator: Sketch 59 (86127) - https://sketch.com -->
    <title>Shape</title>
    <desc>Created with Sketch.</desc>
    <g id="Page-1" stroke="none" stroke-width="1" fill="none" fill-rule="evenodd">
        <g id="retroflix_detalle_sinopsis" transform="translate(-64.000000, -364.000000)" fill="#FF90AB" fill-rule="nonzero">
            <g id="stars" transform="translate(27.000000, 364.000000)">
                <g id="star-copy" transform="translate(36.947368, 0.000000)">
                    <path d="M13.6654348,4.91272571 C13.6204969,4.77579536 13.502535,4.67798796 13.3592956,4.65563199 L9.09019826,4.05202064 L7.16910449,0.209587274 C7.1045063,0.0810404127 6.97250132,0 6.82926187,0 L6.82926187,0 C6.68602242,0 6.55401744,0.0810404127 6.48941926,0.212381771 L4.59360303,4.06599312 L0.324505744,4.69754944 C0.181266295,4.71990542 0.0633043967,4.81771281 0.0183665305,4.95464316 C-0.0265713357,5.09157352 0.0127492972,5.24247635 0.116668113,5.34028375 L3.21457226,8.32760103 L2.49837502,12.5584695 C2.47309747,12.7009888 2.53207842,12.8435082 2.65004032,12.9273431 C2.7146385,12.9748495 2.79327977,13 2.87192103,13 C2.9337106,13 2.99269155,12.9860275 3.04886388,12.955288 L6.86015666,10.9460447 L10.6826839,12.9329321 C10.7388562,12.960877 10.7978372,12.9748495 10.8568181,12.9748495 L10.8568181,12.9748495 C11.0646558,12.9748495 11.2359814,12.8043852 11.2359814,12.5975924 C11.2359814,12.566853 11.2331728,12.538908 11.2247469,12.510963 L10.4860807,8.30524506 L13.5643246,5.30116079 C13.6738606,5.2005589 13.7103726,5.04965606 13.6654348,4.91272571 Z M9.81762997,7.90563199 C9.72775424,7.99226139 9.68843361,8.11801376 9.71090254,8.24097163 L10.3540758,11.9101462 L7.03429089,10.1859415 C6.92475484,10.1272571 6.79274986,10.1300516 6.68040519,10.1859415 L3.37185479,11.9297077 L3.99255907,8.25494411 C4.01221939,8.13198624 3.97289875,8.00902837 3.88302302,7.92239897 L1.19798552,5.32910576 L4.90255086,4.78138435 C5.02612999,4.76182287 5.13285742,4.68637145 5.18622114,4.57459157 L6.83207049,1.22957868 L8.50038877,4.56620808 C8.5565611,4.67798796 8.66328854,4.75343938 8.78686767,4.77300086 L12.4942416,5.29836629 L9.81762997,7.90563199 Z" id="Shape"></path>
                </g>
            </g>
        </g>
    </g>
</svg>