<?xml version="1.0" encoding="UTF-8"?>
<svg width="14px" height="13px" viewBox="0 0 14 13" version="1.1" xmlns="http://www.w3.org/2000/svg" xmlns:xlink="http://www.w3.org/1999/xlink">
    <!-- Generator: Sketch 59 (86127) - https://sketch.com -->
    <title>Shape</title>
    <desc>Created with Sketch.</desc>
    <g id="Page-1" stroke="none" stroke-width="1" fill="none" fill-rule="evenodd">
        <g id="retroflix_detalle_sinopsis" transform="translate(-27.000000, -364.000000)" fill="#FF90AB" fill-rule="nonzero">
            <g id="stars" transform="translate(27.000000, 364.000000)">
                <g id="star-copy-4">
                    <path d="M13.6654348,4.91272571 C13.6204969,4.77579536 13.502535,4.67798796 13.3592956,4.65563199 L9.09019826,4.05202064 L7.16910449,0.209587274 C7.1045063,0.0810404127 6.97250132,0 6.82926187,0 L6.82926187,0 C6.68602242,0 6.55401744,0.0810404127 6.48941926,0.212381771 L4.59360303,4.06599312 L0.324505744,4.69754944 C0.181266295,4.71990542 0.0633043967,4.81771281 0.0183665305,4.95464316 C-0.0265713357,5.09157352 0.0127492972,5.24247635 0.116668113,5.34028375 L3.21457226,8.32760103 L2.49837502,12.5584695 C2.47309747,12.7009888 2.53207842,12.8435082 2.65004032,12.9273431 C2.7146385,12.9748495 2.79327977,13 2.87192103,13 C2.9337106,13 2.99269155,12.9860275 3.04886388,12.955288 L6.86015666,10.9460447 L10.6826839,12.9329321 C10.7388562,12.960877 10.7978372,12.9748495 10.8568181,12.9748495 L10.8568181,12.9748495 C11.0646558,12.9748495 11.2359814,12.8043852 11.2359814,12.5975924 C11.2359814,12.566853 11.2331728,12.538908 11.2247469,12.510963 L10.4860807,8.30524506 L13.5643246,5.30116079 C13.6738606,5.2005589 13.7103726,5.04965606 13.6654348,4.91272571 Z" id="Shape"></path>
                </g>
            </g>
        </g>
    </g>
</svg>