<?xml version="1.0" encoding="UTF-8"?>
<svg width="145px" height="24px" viewBox="0 0 145 24" version="1.1" xmlns="http://www.w3.org/2000/svg" xmlns:xlink="http://www.w3.org/1999/xlink">
    <!-- Generator: Sketch 59 (86127) - https://sketch.com -->
    <title>logo</title>
    <desc>Created with Sketch.</desc>
    <g id="Page-1" stroke="none" stroke-width="1" fill="none" fill-rule="evenodd">
        <g id="retroflix_home" transform="translate(-142.000000, -55.000000)" fill="#FF90AB">
            <g id="logo" transform="translate(142.000000, 47.000000)">
                <text id="retroflix" font-family="BalooBhai-Regular, Baloo Bhai" font-size="28.5" font-weight="normal" letter-spacing="0.0114">
                    <tspan x="36" y="30">retroflix</tspan>
                </text>
                <g id="television" transform="translate(0.000000, 8.000000)" fill-rule="nonzero">
                    <path d="M23.1862071,5.64438257 L15.4575266,5.64438257 L18.2018914,1.23314755 C18.43986,0.85070427 18.3162399,0.351700675 17.9258434,0.118634099 C17.5355021,-0.114540604 17.0260662,0.00661509033 16.7881528,0.389058366 L13.5186788,5.64438257 L11.4813764,5.64438257 L8.2119024,0.389058366 C7.97398902,0.00672321679 7.46460825,-0.114378414 7.07421176,0.118634099 C6.68381527,0.351754738 6.56019523,0.85070427 6.7981638,1.23314755 L9.5425286,5.64438257 L1.81373772,5.64438257 C0.81362955,5.64438257 2.84217094e-14,6.44143675 2.84217094e-14,7.4211165 L2.84217094e-14,22.0869024 C2.84217094e-14,23.0665822 0.81362955,23.8636364 1.81373772,23.8636364 L23.1862623,23.8636364 C24.1863704,23.8636364 25,23.0665822 25,22.0869024 L25,7.4211165 C25,6.44143675 24.1863153,5.64438257 23.1862071,5.64438257 Z M18.1818182,19.47574 C18.1818182,20.0162883 17.7348693,20.4545455 17.1834759,20.4545455 L4.40737729,20.4545455 C3.85603977,20.4545455 3.40909091,20.0162883 3.40909091,19.47574 L3.40909091,8.93335088 C3.40909091,8.39280264 3.85603977,7.95454545 4.40743317,7.95454545 L17.1834759,7.95454545 C17.7348134,7.95454545 18.1818182,8.39280264 18.1818182,8.93335088 L18.1818182,19.47574 Z M21.0227273,19.3181818 C20.0828629,19.3181818 19.3181818,18.5535007 19.3181818,17.6136364 C19.3181818,16.673717 20.0828629,15.9090909 21.0227273,15.9090909 C21.9625916,15.9090909 22.7272727,16.673717 22.7272727,17.6136364 C22.7272727,18.5535557 21.9625916,19.3181818 21.0227273,19.3181818 Z M21.0227273,13.6363636 C20.0828629,13.6363636 19.3181818,12.8717375 19.3181818,11.9318182 C19.3181818,10.9918988 20.0828629,10.2272727 21.0227273,10.2272727 C21.9625916,10.2272727 22.7272727,10.9918988 22.7272727,11.9318182 C22.7272727,12.8717375 21.9625916,13.6363636 21.0227273,13.6363636 Z" id="Shape"></path>
                </g>
            </g>
        </g>
    </g>
</svg>